<svg width="78" height="24" viewBox="0 0 78 24" fill="none" xmlns="http://www.w3.org/2000/svg">
<path d="M6.15139 9.23588C5.76345 8.84544 5.76395 8.21491 6.15252 7.82509L7.84171 6.13045C8.23249 5.73841 8.86741 5.73841 9.2582 6.13045L10.9474 7.82509C11.3359 8.21491 11.3365 8.84544 10.9485 9.23588L9.25933 10.936C8.86829 11.3295 8.23161 11.3295 7.84057 10.936L6.15139 9.23588Z" fill="#FFBDA8"/>
<path d="M2.70031 12.7047C2.31281 12.3147 2.31281 11.6851 2.70031 11.2951L4.39062 9.59384C4.78166 9.20028 5.41834 9.20028 5.80938 9.59384L7.49969 11.2951C7.88719 11.6851 7.88719 12.3147 7.49969 12.7047L5.80938 14.4059C5.41834 14.7995 4.78166 14.7995 4.39062 14.4059L2.70031 12.7047Z" fill="#FF825C"/>
<path d="M6.15026 16.1747C5.76277 15.7847 5.76276 15.155 6.15026 14.765L7.84057 13.0638C8.23161 12.6702 8.86829 12.6702 9.25933 13.0638L10.9496 14.765C11.3371 15.155 11.3371 15.7847 10.9496 16.1747L9.25933 17.8759C8.86829 18.2695 8.23161 18.2695 7.84057 17.8759L6.15026 16.1747Z" fill="#FF3C00"/>
<path d="M13.0514 9.23588C12.6635 8.84544 12.664 8.21491 13.0525 7.82509L14.7417 6.13045C15.1325 5.73841 15.7674 5.73841 16.1582 6.13045L17.8474 7.82509C18.236 8.21491 18.2365 8.84544 17.8485 9.23588L16.1594 10.936C15.7683 11.3295 15.1316 11.3295 14.7406 10.936L13.0514 9.23588Z" fill="#FFBDA8"/>
<path d="M16.5004 12.7047C16.1129 12.3147 16.1129 11.6851 16.5004 11.2951L18.1907 9.59384C18.5817 9.20028 19.2184 9.20028 19.6094 9.59384L21.2997 11.2951C21.6872 11.6851 21.6872 12.3147 21.2997 12.7047L19.6094 14.4059C19.2184 14.7995 18.5817 14.7995 18.1907 14.4059L16.5004 12.7047Z" fill="#FF825C"/>
<path d="M13.0503 16.1747C12.6628 15.7847 12.6628 15.155 13.0503 14.765L14.7406 13.0638C15.1316 12.6702 15.7683 12.6702 16.1594 13.0638L17.8497 14.765C18.2372 15.155 18.2372 15.7847 17.8497 16.1747L16.1594 17.8759C15.7683 18.2695 15.1316 18.2695 14.7406 17.8759L13.0503 16.1747Z" fill="#FF3C00"/>
<path d="M29.552 16.144C28.936 16.144 28.392 16.012 27.92 15.748C27.448 15.476 27.076 15.104 26.804 14.632C26.54 14.16 26.408 13.616 26.408 13C26.408 12.384 26.54 11.84 26.804 11.368C27.076 10.896 27.444 10.528 27.908 10.264C28.38 9.992 28.92 9.856 29.528 9.856C30.12 9.856 30.656 10 31.136 10.288C31.616 10.568 31.972 10.972 32.204 11.5L30.956 11.98C30.828 11.716 30.632 11.504 30.368 11.344C30.104 11.184 29.804 11.104 29.468 11.104C29.14 11.104 28.848 11.188 28.592 11.356C28.336 11.516 28.136 11.74 27.992 12.028C27.848 12.308 27.776 12.632 27.776 13C27.776 13.368 27.848 13.696 27.992 13.984C28.144 14.264 28.348 14.488 28.604 14.656C28.868 14.816 29.164 14.896 29.492 14.896C29.828 14.896 30.128 14.812 30.392 14.644C30.656 14.468 30.852 14.232 30.98 13.936L32.228 14.416C31.996 14.96 31.64 15.384 31.16 15.688C30.688 15.992 30.152 16.144 29.552 16.144ZM36.0313 16.144C35.4313 16.144 34.8953 16.012 34.4233 15.748C33.9593 15.476 33.5953 15.104 33.3313 14.632C33.0673 14.16 32.9353 13.616 32.9353 13C32.9353 12.384 33.0633 11.84 33.3193 11.368C33.5833 10.896 33.9473 10.528 34.4113 10.264C34.8753 9.992 35.4073 9.856 36.0073 9.856C36.6073 9.856 37.1393 9.992 37.6033 10.264C38.0673 10.528 38.4273 10.896 38.6833 11.368C38.9473 11.84 39.0793 12.384 39.0793 13C39.0793 13.616 38.9513 14.16 38.6953 14.632C38.4393 15.104 38.0793 15.476 37.6153 15.748C37.1513 16.012 36.6233 16.144 36.0313 16.144ZM36.0313 14.908C36.3593 14.908 36.6513 14.828 36.9073 14.668C37.1633 14.5 37.3633 14.276 37.5073 13.996C37.6513 13.708 37.7233 13.376 37.7233 13C37.7233 12.624 37.6473 12.296 37.4953 12.016C37.3513 11.728 37.1513 11.504 36.8953 11.344C36.6393 11.176 36.3433 11.092 36.0073 11.092C35.6713 11.092 35.3753 11.172 35.1193 11.332C34.8633 11.492 34.6633 11.716 34.5193 12.004C34.3753 12.292 34.3033 12.624 34.3033 13C34.3033 13.376 34.3753 13.708 34.5193 13.996C34.6713 14.276 34.8753 14.5 35.1313 14.668C35.3953 14.828 35.6953 14.908 36.0313 14.908ZM44.576 16L44.516 14.884V7.6H45.848V16H44.576ZM42.62 16.144C42.076 16.144 41.6 16.016 41.192 15.76C40.792 15.496 40.476 15.128 40.244 14.656C40.02 14.184 39.908 13.632 39.908 13C39.908 12.36 40.02 11.808 40.244 11.344C40.476 10.872 40.792 10.508 41.192 10.252C41.6 9.988 42.076 9.856 42.62 9.856C43.124 9.856 43.556 9.988 43.916 10.252C44.284 10.508 44.564 10.872 44.756 11.344C44.948 11.808 45.044 12.36 45.044 13C45.044 13.632 44.948 14.184 44.756 14.656C44.564 15.128 44.284 15.496 43.916 15.76C43.556 16.016 43.124 16.144 42.62 16.144ZM42.956 14.92C43.26 14.92 43.528 14.84 43.76 14.68C44 14.512 44.184 14.284 44.312 13.996C44.448 13.708 44.516 13.376 44.516 13C44.516 12.624 44.448 12.292 44.312 12.004C44.184 11.716 44 11.492 43.76 11.332C43.528 11.172 43.256 11.092 42.944 11.092C42.624 11.092 42.34 11.172 42.092 11.332C41.844 11.492 41.648 11.716 41.504 12.004C41.368 12.292 41.296 12.624 41.288 13C41.296 13.376 41.368 13.708 41.504 13.996C41.648 14.284 41.844 14.512 42.092 14.68C42.348 14.84 42.636 14.92 42.956 14.92ZM50.0098 16.144C49.4258 16.144 48.9058 16.012 48.4498 15.748C48.0018 15.476 47.6458 15.104 47.3818 14.632C47.1258 14.16 46.9978 13.616 46.9978 13C46.9978 12.384 47.1298 11.84 47.3938 11.368C47.6578 10.896 48.0178 10.528 48.4738 10.264C48.9378 9.992 49.4658 9.856 50.0578 9.856C50.5938 9.856 51.0778 9.996 51.5098 10.276C51.9418 10.548 52.2818 10.944 52.5298 11.464C52.7858 11.984 52.9138 12.604 52.9138 13.324H48.1978L48.3778 13.156C48.3778 13.524 48.4578 13.844 48.6178 14.116C48.7778 14.38 48.9898 14.584 49.2538 14.728C49.5178 14.872 49.8098 14.944 50.1298 14.944C50.4978 14.944 50.8018 14.864 51.0418 14.704C51.2818 14.536 51.4698 14.32 51.6058 14.056L52.7938 14.56C52.6258 14.88 52.4098 15.16 52.1458 15.4C51.8898 15.64 51.5818 15.824 51.2218 15.952C50.8698 16.08 50.4658 16.144 50.0098 16.144ZM48.4618 12.46L48.2698 12.292H51.6538L51.4738 12.46C51.4738 12.132 51.4018 11.864 51.2578 11.656C51.1138 11.44 50.9298 11.28 50.7058 11.176C50.4898 11.064 50.2618 11.008 50.0218 11.008C49.7818 11.008 49.5418 11.064 49.3018 11.176C49.0618 11.28 48.8618 11.44 48.7018 11.656C48.5418 11.864 48.4618 12.132 48.4618 12.46Z" fill="#121212"/>
<path d="M56.1272 16.144C55.7272 16.144 55.3592 16.084 55.0232 15.964C54.6872 15.844 54.3992 15.676 54.1592 15.46C53.9192 15.236 53.7352 14.976 53.6072 14.68L54.7712 14.164C54.8912 14.388 55.0672 14.576 55.2992 14.728C55.5392 14.88 55.8032 14.956 56.0912 14.956C56.4032 14.956 56.6512 14.904 56.8352 14.8C57.0272 14.688 57.1232 14.536 57.1232 14.344C57.1232 14.16 57.0512 14.02 56.9072 13.924C56.7632 13.82 56.5592 13.736 56.2952 13.672L55.7312 13.516C55.1632 13.372 54.7192 13.144 54.3992 12.832C54.0792 12.512 53.9192 12.148 53.9192 11.74C53.9192 11.14 54.1112 10.676 54.4952 10.348C54.8872 10.02 55.4472 9.856 56.1752 9.856C56.5432 9.856 56.8792 9.912 57.1832 10.024C57.4952 10.128 57.7632 10.28 57.9872 10.48C58.2112 10.672 58.3672 10.9 58.4552 11.164L57.3392 11.668C57.2592 11.468 57.1072 11.316 56.8832 11.212C56.6592 11.1 56.4112 11.044 56.1392 11.044C55.8672 11.044 55.6552 11.104 55.5032 11.224C55.3512 11.336 55.2752 11.496 55.2752 11.704C55.2752 11.824 55.3432 11.936 55.4792 12.04C55.6152 12.136 55.8112 12.216 56.0672 12.28L56.7752 12.448C57.1672 12.544 57.4872 12.696 57.7352 12.904C57.9832 13.104 58.1672 13.332 58.2872 13.588C58.4072 13.836 58.4672 14.088 58.4672 14.344C58.4672 14.704 58.3632 15.02 58.1552 15.292C57.9552 15.564 57.6792 15.776 57.3272 15.928C56.9752 16.072 56.5752 16.144 56.1272 16.144ZM62.2091 16.144C61.6251 16.144 61.1051 16.012 60.6491 15.748C60.2011 15.476 59.8451 15.104 59.5811 14.632C59.3251 14.16 59.1971 13.616 59.1971 13C59.1971 12.384 59.3291 11.84 59.5931 11.368C59.8571 10.896 60.2171 10.528 60.6731 10.264C61.1371 9.992 61.6651 9.856 62.2571 9.856C62.7931 9.856 63.2771 9.996 63.7091 10.276C64.1411 10.548 64.4811 10.944 64.7291 11.464C64.9851 11.984 65.1131 12.604 65.1131 13.324H60.3971L60.5771 13.156C60.5771 13.524 60.6571 13.844 60.8171 14.116C60.9771 14.38 61.1891 14.584 61.4531 14.728C61.7171 14.872 62.0091 14.944 62.3291 14.944C62.6971 14.944 63.0011 14.864 63.2411 14.704C63.4811 14.536 63.6691 14.32 63.8051 14.056L64.9931 14.56C64.8251 14.88 64.6091 15.16 64.3451 15.4C64.0891 15.64 63.7811 15.824 63.4211 15.952C63.0691 16.08 62.6651 16.144 62.2091 16.144ZM60.6611 12.46L60.4691 12.292H63.8531L63.6731 12.46C63.6731 12.132 63.6011 11.864 63.4571 11.656C63.3131 11.44 63.1291 11.28 62.9051 11.176C62.6891 11.064 62.4611 11.008 62.2211 11.008C61.9811 11.008 61.7411 11.064 61.5011 11.176C61.2611 11.28 61.0611 11.44 60.9011 11.656C60.7411 11.864 60.6611 12.132 60.6611 12.46ZM68.3264 16.144C67.9264 16.144 67.5584 16.084 67.2224 15.964C66.8864 15.844 66.5984 15.676 66.3584 15.46C66.1184 15.236 65.9344 14.976 65.8064 14.68L66.9704 14.164C67.0904 14.388 67.2664 14.576 67.4984 14.728C67.7384 14.88 68.0024 14.956 68.2904 14.956C68.6024 14.956 68.8504 14.904 69.0344 14.8C69.2264 14.688 69.3224 14.536 69.3224 14.344C69.3224 14.16 69.2504 14.02 69.1064 13.924C68.9624 13.82 68.7584 13.736 68.4944 13.672L67.9304 13.516C67.3624 13.372 66.9184 13.144 66.5984 12.832C66.2784 12.512 66.1184 12.148 66.1184 11.74C66.1184 11.14 66.3104 10.676 66.6944 10.348C67.0864 10.02 67.6464 9.856 68.3744 9.856C68.7424 9.856 69.0784 9.912 69.3824 10.024C69.6944 10.128 69.9624 10.28 70.1864 10.48C70.4104 10.672 70.5664 10.9 70.6544 11.164L69.5384 11.668C69.4584 11.468 69.3064 11.316 69.0824 11.212C68.8584 11.1 68.6104 11.044 68.3384 11.044C68.0664 11.044 67.8544 11.104 67.7024 11.224C67.5504 11.336 67.4744 11.496 67.4744 11.704C67.4744 11.824 67.5424 11.936 67.6784 12.04C67.8144 12.136 68.0104 12.216 68.2664 12.28L68.9744 12.448C69.3664 12.544 69.6864 12.696 69.9344 12.904C70.1824 13.104 70.3664 13.332 70.4864 13.588C70.6064 13.836 70.6664 14.088 70.6664 14.344C70.6664 14.704 70.5624 15.02 70.3544 15.292C70.1544 15.564 69.8784 15.776 69.5264 15.928C69.1744 16.072 68.7744 16.144 68.3264 16.144ZM71.7443 16V7.6H73.0883V16H71.7443ZM75.8123 16V12.928H77.1563V16H75.8123ZM75.8123 12.928C75.8123 12.448 75.7563 12.08 75.6443 11.824C75.5323 11.56 75.3763 11.376 75.1763 11.272C74.9843 11.168 74.7603 11.116 74.5043 11.116C74.0483 11.108 73.6963 11.256 73.4483 11.56C73.2083 11.864 73.0883 12.3 73.0883 12.868H72.5723C72.5723 12.236 72.6643 11.696 72.8483 11.248C73.0403 10.792 73.3083 10.448 73.6523 10.216C73.9963 9.976 74.4043 9.856 74.8763 9.856C75.3483 9.856 75.7563 9.952 76.1003 10.144C76.4443 10.336 76.7043 10.636 76.8803 11.044C77.0643 11.444 77.1563 11.968 77.1563 12.616V12.928H75.8123Z" fill="#FF3C00"/>
</svg>
