<svg width="40" height="40" viewBox="0 0 40 40" fill="none" xmlns="http://www.w3.org/2000/svg">
<path d="M9.78481 14.9227C9.39687 14.5323 9.39738 13.9018 9.78594 13.5119L13.5418 9.74398C13.9326 9.35193 14.5675 9.35193 14.9583 9.74398L18.7141 13.5119C19.1027 13.9018 19.1032 14.5323 18.7153 14.9227L14.9594 18.7028C14.5684 19.0964 13.9317 19.0964 13.5407 18.7028L9.78481 14.9227Z" fill="#FFBDA8"/>
<path d="M4.03368 20.7049C3.64619 20.3149 3.64619 19.6852 4.03369 19.2952L7.79066 15.514C8.1817 15.1204 8.81838 15.1204 9.20942 15.514L12.9664 19.2952C13.3539 19.6852 13.3539 20.3149 12.9664 20.7049L9.20942 24.4861C8.81838 24.8797 8.1817 24.8797 7.79066 24.4861L4.03368 20.7049Z" fill="#FF825C"/>
<path d="M9.78369 26.4883C9.39619 26.0983 9.39619 25.4687 9.78369 25.0787L13.5407 21.2974C13.9317 20.9039 14.5684 20.9039 14.9594 21.2974L18.7164 25.0787C19.1039 25.4687 19.1039 26.0983 18.7164 26.4883L14.9594 30.2695C14.5684 30.6631 13.9317 30.6631 13.5407 30.2695L9.78369 26.4883Z" fill="#FF3C00"/>
<path d="M21.2848 14.9227C20.8969 14.5323 20.8974 13.9018 21.2859 13.5119L25.0418 9.74398C25.4326 9.35193 26.0675 9.35193 26.4583 9.74398L30.2141 13.5119C30.6027 13.9018 30.6032 14.5323 30.2153 14.9227L26.4594 18.7028C26.0684 19.0964 25.4317 19.0964 25.0407 18.7028L21.2848 14.9227Z" fill="#FFBDA8"/>
<path d="M27.0337 20.7049C26.6462 20.3149 26.6462 19.6852 27.0337 19.2952L30.7907 15.514C31.1817 15.1204 31.8184 15.1204 32.2094 15.514L35.9664 19.2952C36.3539 19.6852 36.3539 20.3149 35.9664 20.7049L32.2094 24.4861C31.8184 24.8797 31.1817 24.8797 30.7907 24.4861L27.0337 20.7049Z" fill="#FF825C"/>
<path d="M21.2837 26.4883C20.8962 26.0983 20.8962 25.4687 21.2837 25.0787L25.0407 21.2974C25.4317 20.9039 26.0684 20.9039 26.4594 21.2974L30.2164 25.0787C30.6039 25.4687 30.6039 26.0983 30.2164 26.4883L26.4594 30.2695C26.0684 30.6631 25.4317 30.6631 25.0407 30.2695L21.2837 26.4883Z" fill="#FF3C00"/>
</svg>
