<svg width="129" height="40" viewBox="0 0 129 40" fill="none" xmlns="http://www.w3.org/2000/svg">
<path d="M9.78481 14.9227C9.39687 14.5323 9.39738 13.9018 9.78594 13.5119L13.5418 9.74398C13.9326 9.35193 14.5675 9.35193 14.9583 9.74398L18.7141 13.5119C19.1027 13.9018 19.1032 14.5323 18.7153 14.9227L14.9594 18.7028C14.5684 19.0964 13.9317 19.0964 13.5407 18.7028L9.78481 14.9227Z" fill="#FFBDA8"/>
<path d="M4.03368 20.7049C3.64619 20.3149 3.64619 19.6852 4.03369 19.2952L7.79066 15.514C8.1817 15.1204 8.81838 15.1204 9.20942 15.514L12.9664 19.2952C13.3539 19.6852 13.3539 20.3149 12.9664 20.7049L9.20942 24.4861C8.81838 24.8797 8.1817 24.8797 7.79066 24.4861L4.03368 20.7049Z" fill="#FF825C"/>
<path d="M9.78369 26.4883C9.39619 26.0983 9.39619 25.4687 9.78369 25.0787L13.5407 21.2974C13.9317 20.9039 14.5684 20.9039 14.9594 21.2974L18.7164 25.0787C19.1039 25.4687 19.1039 26.0983 18.7164 26.4883L14.9594 30.2695C14.5684 30.6631 13.9317 30.6631 13.5407 30.2695L9.78369 26.4883Z" fill="#FF3C00"/>
<path d="M21.2848 14.9227C20.8969 14.5323 20.8974 13.9018 21.2859 13.5119L25.0418 9.74398C25.4326 9.35193 26.0675 9.35193 26.4583 9.74398L30.2141 13.5119C30.6027 13.9018 30.6032 14.5323 30.2153 14.9227L26.4594 18.7028C26.0684 19.0964 25.4317 19.0964 25.0407 18.7028L21.2848 14.9227Z" fill="#FFBDA8"/>
<path d="M27.0337 20.7049C26.6462 20.3149 26.6462 19.6852 27.0337 19.2952L30.7907 15.514C31.1817 15.1204 31.8184 15.1204 32.2094 15.514L35.9664 19.2952C36.3539 19.6852 36.3539 20.3149 35.9664 20.7049L32.2094 24.4861C31.8184 24.8797 31.1817 24.8797 30.7907 24.4861L27.0337 20.7049Z" fill="#FF825C"/>
<path d="M21.2837 26.4883C20.8962 26.0983 20.8962 25.4687 21.2837 25.0787L25.0407 21.2974C25.4317 20.9039 26.0684 20.9039 26.4594 21.2974L30.2164 25.0787C30.6039 25.4687 30.6039 26.0983 30.2164 26.4883L26.4594 30.2695C26.0684 30.6631 25.4317 30.6631 25.0407 30.2695L21.2837 26.4883Z" fill="#FF3C00"/>
<path d="M47.92 27.24C46.8933 27.24 45.9867 27.02 45.2 26.58C44.4133 26.1267 43.7933 25.5067 43.34 24.72C42.9 23.9333 42.68 23.0267 42.68 22C42.68 20.9733 42.9 20.0667 43.34 19.28C43.7933 18.4933 44.4067 17.88 45.18 17.44C45.9667 16.9867 46.8667 16.76 47.88 16.76C48.8667 16.76 49.76 17 50.56 17.48C51.36 17.9467 51.9533 18.62 52.34 19.5L50.26 20.3C50.0467 19.86 49.72 19.5067 49.28 19.24C48.84 18.9733 48.34 18.84 47.78 18.84C47.2333 18.84 46.7467 18.98 46.32 19.26C45.8933 19.5267 45.56 19.9 45.32 20.38C45.08 20.8467 44.96 21.3867 44.96 22C44.96 22.6133 45.08 23.16 45.32 23.64C45.5733 24.1067 45.9133 24.48 46.34 24.76C46.78 25.0267 47.2733 25.16 47.82 25.16C48.38 25.16 48.88 25.02 49.32 24.74C49.76 24.4467 50.0867 24.0533 50.3 23.56L52.38 24.36C51.9933 25.2667 51.4 25.9733 50.6 26.48C49.8133 26.9867 48.92 27.24 47.92 27.24ZM58.7189 27.24C57.7189 27.24 56.8256 27.02 56.0389 26.58C55.2656 26.1267 54.6589 25.5067 54.2189 24.72C53.7789 23.9333 53.5589 23.0267 53.5589 22C53.5589 20.9733 53.7722 20.0667 54.1989 19.28C54.6389 18.4933 55.2456 17.88 56.0189 17.44C56.7922 16.9867 57.6789 16.76 58.6789 16.76C59.6789 16.76 60.5656 16.9867 61.3389 17.44C62.1122 17.88 62.7122 18.4933 63.1389 19.28C63.5789 20.0667 63.7989 20.9733 63.7989 22C63.7989 23.0267 63.5856 23.9333 63.1589 24.72C62.7322 25.5067 62.1322 26.1267 61.3589 26.58C60.5856 27.02 59.7056 27.24 58.7189 27.24ZM58.7189 25.18C59.2656 25.18 59.7522 25.0467 60.1789 24.78C60.6056 24.5 60.9389 24.1267 61.1789 23.66C61.4189 23.18 61.5389 22.6267 61.5389 22C61.5389 21.3733 61.4122 20.8267 61.1589 20.36C60.9189 19.88 60.5856 19.5067 60.1589 19.24C59.7322 18.96 59.2389 18.82 58.6789 18.82C58.1189 18.82 57.6256 18.9533 57.1989 19.22C56.7722 19.4867 56.4389 19.86 56.1989 20.34C55.9589 20.82 55.8389 21.3733 55.8389 22C55.8389 22.6267 55.9589 23.18 56.1989 23.66C56.4522 24.1267 56.7922 24.5 57.2189 24.78C57.6589 25.0467 58.1589 25.18 58.7189 25.18ZM72.96 27L72.86 25.14V13H75.08V27H72.96ZM69.7 27.24C68.7933 27.24 68 27.0267 67.32 26.6C66.6533 26.16 66.1267 25.5467 65.74 24.76C65.3667 23.9733 65.18 23.0533 65.18 22C65.18 20.9333 65.3667 20.0133 65.74 19.24C66.1267 18.4533 66.6533 17.8467 67.32 17.42C68 16.98 68.7933 16.76 69.7 16.76C70.54 16.76 71.26 16.98 71.86 17.42C72.4733 17.8467 72.94 18.4533 73.26 19.24C73.58 20.0133 73.74 20.9333 73.74 22C73.74 23.0533 73.58 23.9733 73.26 24.76C72.94 25.5467 72.4733 26.16 71.86 26.6C71.26 27.0267 70.54 27.24 69.7 27.24ZM70.26 25.2C70.7667 25.2 71.2133 25.0667 71.6 24.8C72 24.52 72.3067 24.14 72.52 23.66C72.7467 23.18 72.86 22.6267 72.86 22C72.86 21.3733 72.7467 20.82 72.52 20.34C72.3067 19.86 72 19.4867 71.6 19.22C71.2133 18.9533 70.76 18.82 70.24 18.82C69.7067 18.82 69.2333 18.9533 68.82 19.22C68.4067 19.4867 68.08 19.86 67.84 20.34C67.6133 20.82 67.4933 21.3733 67.48 22C67.4933 22.6267 67.6133 23.18 67.84 23.66C68.08 24.14 68.4067 24.52 68.82 24.8C69.2467 25.0667 69.7267 25.2 70.26 25.2ZM82.0164 27.24C81.0431 27.24 80.1764 27.02 79.4164 26.58C78.6697 26.1267 78.0764 25.5067 77.6364 24.72C77.2097 23.9333 76.9964 23.0267 76.9964 22C76.9964 20.9733 77.2164 20.0667 77.6564 19.28C78.0964 18.4933 78.6964 17.88 79.4564 17.44C80.2297 16.9867 81.1097 16.76 82.0964 16.76C82.9897 16.76 83.7964 16.9933 84.5164 17.46C85.2364 17.9133 85.8031 18.5733 86.2164 19.44C86.6431 20.3067 86.8564 21.34 86.8564 22.54H78.9964L79.2964 22.26C79.2964 22.8733 79.4297 23.4067 79.6964 23.86C79.9631 24.3 80.3164 24.64 80.7564 24.88C81.1964 25.12 81.6831 25.24 82.2164 25.24C82.8297 25.24 83.3364 25.1067 83.7364 24.84C84.1364 24.56 84.4497 24.2 84.6764 23.76L86.6564 24.6C86.3764 25.1333 86.0164 25.6 85.5764 26C85.1497 26.4 84.6364 26.7067 84.0364 26.92C83.4497 27.1333 82.7764 27.24 82.0164 27.24ZM79.4364 21.1L79.1164 20.82H84.7564L84.4564 21.1C84.4564 20.5533 84.3364 20.1067 84.0964 19.76C83.8564 19.4 83.5497 19.1333 83.1764 18.96C82.8164 18.7733 82.4364 18.68 82.0364 18.68C81.6364 18.68 81.2364 18.7733 80.8364 18.96C80.4364 19.1333 80.1031 19.4 79.8364 19.76C79.5697 20.1067 79.4364 20.5533 79.4364 21.1Z" fill="#121212"/>
<path d="M92.212 27.24C91.5454 27.24 90.932 27.14 90.372 26.94C89.812 26.74 89.332 26.46 88.932 26.1C88.532 25.7267 88.2254 25.2933 88.012 24.8L89.952 23.94C90.152 24.3133 90.4454 24.6267 90.832 24.88C91.232 25.1333 91.672 25.26 92.152 25.26C92.672 25.26 93.0854 25.1733 93.392 25C93.712 24.8133 93.872 24.56 93.872 24.24C93.872 23.9333 93.752 23.7 93.512 23.54C93.272 23.3667 92.932 23.2267 92.492 23.12L91.552 22.86C90.6054 22.62 89.8654 22.24 89.332 21.72C88.7987 21.1867 88.532 20.58 88.532 19.9C88.532 18.9 88.852 18.1267 89.492 17.58C90.1454 17.0333 91.0787 16.76 92.292 16.76C92.9054 16.76 93.4654 16.8533 93.972 17.04C94.492 17.2133 94.9387 17.4667 95.312 17.8C95.6854 18.12 95.9454 18.5 96.092 18.94L94.232 19.78C94.0987 19.4467 93.8454 19.1933 93.472 19.02C93.0987 18.8333 92.6854 18.74 92.232 18.74C91.7787 18.74 91.4254 18.84 91.172 19.04C90.9187 19.2267 90.792 19.4933 90.792 19.84C90.792 20.04 90.9054 20.2267 91.132 20.4C91.3587 20.56 91.6854 20.6933 92.112 20.8L93.292 21.08C93.9454 21.24 94.4787 21.4933 94.892 21.84C95.3054 22.1733 95.612 22.5533 95.812 22.98C96.012 23.3933 96.112 23.8133 96.112 24.24C96.112 24.84 95.9387 25.3667 95.592 25.82C95.2587 26.2733 94.7987 26.6267 94.212 26.88C93.6254 27.12 92.9587 27.24 92.212 27.24ZM102.348 27.24C101.375 27.24 100.508 27.02 99.7484 26.58C99.0018 26.1267 98.4084 25.5067 97.9684 24.72C97.5418 23.9333 97.3284 23.0267 97.3284 22C97.3284 20.9733 97.5484 20.0667 97.9884 19.28C98.4284 18.4933 99.0284 17.88 99.7884 17.44C100.562 16.9867 101.442 16.76 102.428 16.76C103.322 16.76 104.128 16.9933 104.848 17.46C105.568 17.9133 106.135 18.5733 106.548 19.44C106.975 20.3067 107.188 21.34 107.188 22.54H99.3284L99.6284 22.26C99.6284 22.8733 99.7618 23.4067 100.028 23.86C100.295 24.3 100.648 24.64 101.088 24.88C101.528 25.12 102.015 25.24 102.548 25.24C103.162 25.24 103.668 25.1067 104.068 24.84C104.468 24.56 104.782 24.2 105.008 23.76L106.988 24.6C106.708 25.1333 106.348 25.6 105.908 26C105.482 26.4 104.968 26.7067 104.368 26.92C103.782 27.1333 103.108 27.24 102.348 27.24ZM99.7684 21.1L99.4484 20.82H105.088L104.788 21.1C104.788 20.5533 104.668 20.1067 104.428 19.76C104.188 19.4 103.882 19.1333 103.508 18.96C103.148 18.7733 102.768 18.68 102.368 18.68C101.968 18.68 101.568 18.7733 101.168 18.96C100.768 19.1333 100.435 19.4 100.168 19.76C99.9018 20.1067 99.7684 20.5533 99.7684 21.1ZM112.544 27.24C111.877 27.24 111.264 27.14 110.704 26.94C110.144 26.74 109.664 26.46 109.264 26.1C108.864 25.7267 108.557 25.2933 108.344 24.8L110.284 23.94C110.484 24.3133 110.777 24.6267 111.164 24.88C111.564 25.1333 112.004 25.26 112.484 25.26C113.004 25.26 113.417 25.1733 113.724 25C114.044 24.8133 114.204 24.56 114.204 24.24C114.204 23.9333 114.084 23.7 113.844 23.54C113.604 23.3667 113.264 23.2267 112.824 23.12L111.884 22.86C110.937 22.62 110.197 22.24 109.664 21.72C109.131 21.1867 108.864 20.58 108.864 19.9C108.864 18.9 109.184 18.1267 109.824 17.58C110.477 17.0333 111.411 16.76 112.624 16.76C113.237 16.76 113.797 16.8533 114.304 17.04C114.824 17.2133 115.271 17.4667 115.644 17.8C116.017 18.12 116.277 18.5 116.424 18.94L114.564 19.78C114.431 19.4467 114.177 19.1933 113.804 19.02C113.431 18.8333 113.017 18.74 112.564 18.74C112.111 18.74 111.757 18.84 111.504 19.04C111.251 19.2267 111.124 19.4933 111.124 19.84C111.124 20.04 111.237 20.2267 111.464 20.4C111.691 20.56 112.017 20.6933 112.444 20.8L113.624 21.08C114.277 21.24 114.811 21.4933 115.224 21.84C115.637 22.1733 115.944 22.5533 116.144 22.98C116.344 23.3933 116.444 23.8133 116.444 24.24C116.444 24.84 116.271 25.3667 115.924 25.82C115.591 26.2733 115.131 26.6267 114.544 26.88C113.957 27.12 113.291 27.24 112.544 27.24ZM118.24 27V13H120.48V27H118.24ZM125.02 27V21.88H127.26V27H125.02ZM125.02 21.88C125.02 21.08 124.927 20.4667 124.74 20.04C124.554 19.6 124.294 19.2933 123.96 19.12C123.64 18.9467 123.267 18.86 122.84 18.86C122.08 18.8467 121.494 19.0933 121.08 19.6C120.68 20.1067 120.48 20.8333 120.48 21.78H119.62C119.62 20.7267 119.774 19.8267 120.08 19.08C120.4 18.32 120.847 17.7467 121.42 17.36C121.994 16.96 122.674 16.76 123.46 16.76C124.247 16.76 124.927 16.92 125.5 17.24C126.074 17.56 126.507 18.06 126.8 18.74C127.107 19.4067 127.26 20.28 127.26 21.36V21.88H125.02Z" fill="#FF3C00"/>
</svg>
