<svg width="24" height="24" viewBox="0 0 24 24" fill="none" xmlns="http://www.w3.org/2000/svg">
<path d="M6.15139 9.23588C5.76345 8.84544 5.76395 8.21491 6.15252 7.82509L7.84171 6.13045C8.23249 5.73841 8.86741 5.73841 9.2582 6.13045L10.9474 7.82509C11.3359 8.21491 11.3365 8.84544 10.9485 9.23588L9.25933 10.936C8.86829 11.3295 8.23161 11.3295 7.84057 10.936L6.15139 9.23588Z" fill="#FFBDA8"/>
<path d="M2.70031 12.7047C2.31281 12.3147 2.31281 11.6851 2.70031 11.2951L4.39062 9.59384C4.78166 9.20028 5.41834 9.20028 5.80938 9.59384L7.49969 11.2951C7.88719 11.6851 7.88719 12.3147 7.49969 12.7047L5.80938 14.4059C5.41834 14.7995 4.78166 14.7995 4.39062 14.4059L2.70031 12.7047Z" fill="#FF825C"/>
<path d="M6.15026 16.1747C5.76277 15.7847 5.76276 15.155 6.15026 14.765L7.84057 13.0638C8.23161 12.6702 8.86829 12.6702 9.25933 13.0638L10.9496 14.765C11.3371 15.155 11.3371 15.7847 10.9496 16.1747L9.25933 17.8759C8.86829 18.2695 8.23161 18.2695 7.84057 17.8759L6.15026 16.1747Z" fill="#FF3C00"/>
<path d="M13.0514 9.23588C12.6635 8.84544 12.664 8.21491 13.0525 7.82509L14.7417 6.13045C15.1325 5.73841 15.7674 5.73841 16.1582 6.13045L17.8474 7.82509C18.236 8.21491 18.2365 8.84544 17.8485 9.23588L16.1594 10.936C15.7683 11.3295 15.1316 11.3295 14.7406 10.936L13.0514 9.23588Z" fill="#FFBDA8"/>
<path d="M16.5004 12.7047C16.1129 12.3147 16.1129 11.6851 16.5004 11.2951L18.1907 9.59384C18.5817 9.20028 19.2184 9.20028 19.6094 9.59384L21.2997 11.2951C21.6872 11.6851 21.6872 12.3147 21.2997 12.7047L19.6094 14.4059C19.2184 14.7995 18.5817 14.7995 18.1907 14.4059L16.5004 12.7047Z" fill="#FF825C"/>
<path d="M13.0503 16.1747C12.6628 15.7847 12.6628 15.155 13.0503 14.765L14.7406 13.0638C15.1316 12.6702 15.7683 12.6702 16.1594 13.0638L17.8497 14.765C18.2372 15.155 18.2372 15.7847 17.8497 16.1747L16.1594 17.8759C15.7683 18.2695 15.1316 18.2695 14.7406 17.8759L13.0503 16.1747Z" fill="#FF3C00"/>
</svg>
